<svg width="66" height="28" viewBox="0 0 66 28" fill="none" xmlns="http://www.w3.org/2000/svg">
<path d="M0.736 18.803H7.797V22H10.925V18.803H13.386V16.089H10.925V7.073H7.015L0.736 15.491V18.803ZM7.797 16.089H3.542L7.797 10.385V16.089ZM15.1956 20.068C15.1956 21.218 16.1386 22.161 17.2886 22.161C18.4616 22.161 19.4046 21.218 19.4046 20.068C19.4046 18.918 18.4616 17.975 17.2886 17.975C16.1386 17.975 15.1956 18.918 15.1956 20.068ZM27.3084 13.191C25.9284 13.168 25.1234 12.294 25.1234 11.236C25.1234 10.247 25.9284 9.35 27.3084 9.35C28.7114 9.35 29.5164 10.247 29.5164 11.236C29.5164 12.294 28.7114 13.168 27.3084 13.191ZM27.3084 19.723C25.6754 19.723 24.8014 18.711 24.8014 17.653C24.8014 16.572 25.6294 15.537 27.3084 15.537C28.9874 15.537 29.8384 16.572 29.8384 17.653C29.8384 18.711 28.9644 19.723 27.3084 19.723ZM27.3084 22.345C30.7124 22.345 32.9434 20.551 32.9434 17.975C32.9434 16.365 31.8854 14.916 30.3214 14.341C31.8164 13.789 32.6444 12.317 32.6444 11.006C32.6444 8.499 30.4134 6.728 27.3084 6.728C24.2034 6.728 21.9724 8.499 21.9724 11.006C21.9724 12.34 22.8234 13.789 24.3184 14.341C22.7314 14.939 21.6734 16.365 21.6734 17.975C21.6734 20.551 23.9044 22.345 27.3084 22.345Z" fill="#FF5722"/>
<path d="M59.9189 16.3201C59.6599 16.5711 59.5409 16.9341 59.5999 17.2901L60.4889 22.2101C60.5639 22.6271 60.3879 23.0491 60.0389 23.2901C59.6969 23.5401 59.2419 23.5701 58.8689 23.3701L54.4399 21.0601C54.2859 20.9781 54.1149 20.9341 53.9399 20.9291H53.6689C53.5749 20.9431 53.4829 20.9731 53.3989 21.0191L48.9689 23.3401C48.7499 23.4501 48.5019 23.4891 48.2589 23.4501C47.6669 23.3381 47.2719 22.7741 47.3689 22.1791L48.2589 17.2591C48.3179 16.9001 48.1989 16.5351 47.9399 16.2801L44.3289 12.7801C44.0269 12.4871 43.9219 12.0471 44.0599 11.6501C44.1939 11.2541 44.5359 10.9651 44.9489 10.9001L49.9189 10.1791C50.2969 10.1401 50.6289 9.91012 50.7989 9.57012L52.9889 5.08012C53.0409 4.98012 53.1079 4.88812 53.1889 4.81012L53.2789 4.74012C53.3259 4.68812 53.3799 4.64512 53.4399 4.61012L53.5489 4.57012L53.7189 4.50012H54.1399C54.5159 4.53912 54.8469 4.76412 55.0199 5.10012L57.2389 9.57012C57.3989 9.89712 57.7099 10.1241 58.0689 10.1791L63.0389 10.9001C63.4589 10.9601 63.8099 11.2501 63.9489 11.6501C64.0799 12.0511 63.9669 12.4911 63.6589 12.7801L59.9189 16.3201Z" fill="#FF5722"/>
</svg>
