<svg width="67" height="28" viewBox="0 0 67 28" fill="none" xmlns="http://www.w3.org/2000/svg">
<path d="M1.06998 18.803H8.13098V22H11.259V18.803H13.72V16.089H11.259V7.073H7.34898L1.06998 15.491V18.803ZM8.13098 16.089H3.87598L8.13098 10.385V16.089ZM15.5296 20.068C15.5296 21.218 16.4726 22.161 17.6226 22.161C18.7956 22.161 19.7386 21.218 19.7386 20.068C19.7386 18.918 18.7956 17.975 17.6226 17.975C16.4726 17.975 15.5296 18.918 15.5296 20.068ZM21.8672 17.814C22.0512 20.16 24.3052 22.368 27.5482 22.368C31.1362 22.368 33.2752 19.953 33.2752 17.17C33.2752 13.973 31.1592 12.179 28.1692 12.179C27.1802 12.179 26.1222 12.501 25.4782 13.099L26.2142 9.81H32.4702V7.073H24.0522L22.2812 14.732C22.6032 14.824 24.8802 15.606 25.1792 15.721C25.6622 15.169 26.4672 14.709 27.4792 14.709C28.8592 14.709 30.1242 15.514 30.1242 17.216C30.1242 18.711 28.9742 19.654 27.5482 19.654C25.9612 19.654 24.9032 18.527 24.8342 17.147L21.8672 17.814Z" fill="#FF5722"/>
<path d="M60.2529 16.3201C59.9939 16.5711 59.8749 16.9341 59.9339 17.2901L60.8229 22.2101C60.8979 22.6271 60.7219 23.0491 60.3729 23.2901C60.0309 23.5401 59.5759 23.5701 59.2029 23.3701L54.7739 21.0601C54.6199 20.9781 54.4489 20.9341 54.2739 20.9291H54.0029C53.9089 20.9431 53.8169 20.9731 53.7329 21.0191L49.3029 23.3401C49.0839 23.4501 48.8359 23.4891 48.5929 23.4501C48.0009 23.3381 47.6059 22.7741 47.7029 22.1791L48.5929 17.2591C48.6519 16.9001 48.5329 16.5351 48.2739 16.2801L44.6629 12.7801C44.3609 12.4871 44.2559 12.0471 44.3939 11.6501C44.5279 11.2541 44.8699 10.9651 45.2829 10.9001L50.2529 10.1791C50.6309 10.1401 50.9629 9.91012 51.1329 9.57012L53.3229 5.08012C53.3749 4.98012 53.4419 4.88812 53.5229 4.81012L53.6129 4.74012C53.6599 4.68812 53.7139 4.64512 53.7739 4.61012L53.8829 4.57012L54.0529 4.50012H54.4739C54.8499 4.53912 55.1809 4.76412 55.3539 5.10012L57.5729 9.57012C57.7329 9.89712 58.0439 10.1241 58.4029 10.1791L63.3729 10.9001C63.7929 10.9601 64.1439 11.2501 64.2829 11.6501C64.4139 12.0511 64.3009 12.4911 63.9929 12.7801L60.2529 16.3201Z" fill="#FF5722"/>
</svg>
