<svg width="67" height="28" viewBox="0 0 67 28" fill="none" xmlns="http://www.w3.org/2000/svg">
<path d="M1.33302 17.814C1.51702 20.16 3.77102 22.368 7.01402 22.368C10.602 22.368 12.741 19.953 12.741 17.17C12.741 13.973 10.625 12.179 7.63502 12.179C6.64602 12.179 5.58802 12.501 4.94402 13.099L5.68002 9.81H11.936V7.073H3.51802L1.74702 14.732C2.06902 14.824 4.34602 15.606 4.64502 15.721C5.12802 15.169 5.93302 14.709 6.94502 14.709C8.32502 14.709 9.59002 15.514 9.59002 17.216C9.59002 18.711 8.44002 19.654 7.01402 19.654C5.42702 19.654 4.36902 18.527 4.30002 17.147L1.33302 17.814ZM14.6488 20.068C14.6488 21.218 15.5918 22.161 16.7418 22.161C17.9148 22.161 18.8578 21.218 18.8578 20.068C18.8578 18.918 17.9148 17.975 16.7418 17.975C15.5918 17.975 14.6488 18.918 14.6488 20.068ZM23.9871 14.548C23.9871 12.984 24.2171 11.65 24.7921 10.753C25.2521 10.017 25.9651 9.534 27.0461 9.534C28.1501 9.534 28.8171 10.017 29.2771 10.753C29.8751 11.65 30.1051 12.984 30.1051 14.548C30.1051 16.112 29.8751 17.446 29.2771 18.343C28.8171 19.079 28.1501 19.562 27.0461 19.562C25.9651 19.562 25.2521 19.079 24.7921 18.343C24.2171 17.446 23.9871 16.112 23.9871 14.548ZM20.8131 14.548C20.8131 16.457 21.1121 18.32 22.1241 19.861C23.1131 21.333 24.7231 22.368 27.0461 22.368C29.3691 22.368 30.9791 21.333 31.9451 19.861C32.9571 18.32 33.2791 16.457 33.2791 14.548C33.2791 12.639 32.9571 10.776 31.9451 9.235C30.9791 7.763 29.3691 6.728 27.0461 6.728C24.7231 6.728 23.1131 7.763 22.1241 9.235C21.1121 10.776 20.8131 12.639 20.8131 14.548Z" fill="#FF5722"/>
<path d="M60.5849 16.3201C60.3259 16.5711 60.2069 16.9341 60.2659 17.2901L61.1549 22.2101C61.2299 22.6271 61.0539 23.0491 60.7049 23.2901C60.3629 23.5401 59.9079 23.5701 59.5349 23.3701L55.1059 21.0601C54.9519 20.9781 54.7809 20.9341 54.6059 20.9291H54.3349C54.2409 20.9431 54.1489 20.9731 54.0649 21.0191L49.6349 23.3401C49.4159 23.4501 49.1679 23.4891 48.9249 23.4501C48.3329 23.3381 47.9379 22.7741 48.0349 22.1791L48.9249 17.2591C48.9839 16.9001 48.8649 16.5351 48.6059 16.2801L44.9949 12.7801C44.6929 12.4871 44.5879 12.0471 44.7259 11.6501C44.8599 11.2541 45.2019 10.9651 45.6149 10.9001L50.5849 10.1791C50.9629 10.1401 51.2949 9.91012 51.4649 9.57012L53.6549 5.08012C53.7069 4.98012 53.7739 4.88812 53.8549 4.81012L53.9449 4.74012C53.9919 4.68812 54.0459 4.64512 54.1059 4.61012L54.2149 4.57012L54.3849 4.50012H54.8059C55.1819 4.53912 55.5129 4.76412 55.6859 5.10012L57.9049 9.57012C58.0649 9.89712 58.3759 10.1241 58.7349 10.1791L63.7049 10.9001C64.1249 10.9601 64.4759 11.2501 64.6149 11.6501C64.7459 12.0511 64.6329 12.4911 64.3249 12.7801L60.5849 16.3201Z" fill="#FF5722"/>
</svg>
