<svg width="174" height="32" viewBox="0 0 174 32" fill="none" xmlns="http://www.w3.org/2000/svg">
<path d="M100.242 31.141L113.546 1.03261C113.757 0.575727 113.51 0.18281 112.998 0.18281H103.678C103.405 0.198309 103.141 0.285992 102.913 0.4369C102.685 0.587809 102.501 0.796533 102.38 1.04174L89.2404 31.141C89.0485 31.607 89.2952 31.9908 89.7978 31.9908H98.9446C99.4563 31.9908 100.041 31.607 100.242 31.141ZM147.95 23.036L168.6 0.191948H144.45L138.986 8.99146H148.461L127.472 31.9999H153.03L162.551 23.036H147.95ZM59.5706 0.18281H43.5798C43.1058 0.210282 42.6474 0.362492 42.251 0.624037C41.8547 0.885583 41.5345 1.24718 41.3228 1.67224L28.7404 30.5105C28.3749 31.3329 28.8226 31.9999 29.7181 31.9999H37.6404C38.5359 31.9999 39.5593 31.3329 39.9065 30.5197L43.4976 22.3415H47.2166C48.3771 22.2684 48.8705 22.6979 48.2309 24.0411L45.4713 30.5105C45.1241 31.3329 45.5627 31.9999 46.4582 31.9999H54.3805C54.8563 31.975 55.317 31.8239 55.7153 31.5621C56.1135 31.3004 56.4349 30.9375 56.6466 30.5105L60.2468 22.1862C61.3799 19.4814 59.7442 17.3889 57.3685 17.2793C59.4701 16.5208 61.4073 14.4283 62.2754 12.5277L64.1394 8.14166C66.3873 3.04288 64.7882 0.118847 59.5706 0.191948M54.9104 9.28386L52.9367 13.6242C52.4798 14.6659 51.8219 14.7481 51.164 14.7207H46.714L49.6929 7.95891H53.9601C55.0018 8.02287 55.2668 8.39752 54.9104 9.28386ZM90.6933 0.173672H73.7522C73.4129 0.191354 73.0844 0.2988 72.8002 0.485029C72.5161 0.671259 72.2864 0.929594 72.1348 1.23363L59.1686 30.9308C58.9219 31.5156 59.2234 31.9817 59.863 31.9817H78.0012C83.7487 31.8994 87.0474 30.6293 89.6699 24.5437L91.534 20.4866C92.996 17.0143 91.5614 15.5066 88.8201 15.068C91.1045 14.3644 92.8224 12.217 93.5625 10.3255L95.0793 7.10911C96.9434 2.81444 95.39 0.118847 90.6842 0.173672M82.3781 20.0936L81.2267 22.4055C80.6511 24.0137 79.6459 24.4523 78.2296 24.4706H72.9298L75.4701 18.4854H80.7699C82.2684 18.5951 82.8532 18.9606 82.3781 20.0936ZM85.4209 9.4392L84.6259 11.2667L84.5071 11.5043C84.3752 11.8855 84.1207 12.2124 83.7835 12.4338C83.4464 12.6553 83.0454 12.759 82.6431 12.7287H78.0469L80.1485 7.88581H84.8361C85.6768 7.94064 85.8138 8.48889 85.4209 9.4392ZM116.48 0.18281L112.541 8.99146H118.161C118.545 8.99146 118.727 9.26559 118.572 9.62195L108.749 31.3694C108.585 31.7167 108.777 31.9999 109.16 31.9999H119.166C119.55 31.9999 119.988 31.7167 120.144 31.3603L129.574 9.62195C129.664 9.43911 129.801 9.28353 129.972 9.17115C130.142 9.05876 130.339 8.9936 130.542 8.98232H136.308L141.736 0.18281H116.48ZM33.4645 11.02L34.7072 8.30614C37.2109 2.586 35.557 0.127984 30.641 0.191948H18.8078C13.9374 0.127984 9.88034 2.86926 7.63249 7.96805L3.97745 18.2935H0.523438L7.12992 27.2118L18.0494 18.2935H15.2715L18.4788 10.8464C18.9997 9.62195 19.8952 9.03715 20.8546 8.99146H22.7187C23.1573 9.00974 23.4588 9.1468 23.6324 9.33869L29.4257 4.46835L33.4645 11.02Z" fill="#191825" fill-opacity="0.5"/>
<path d="M6.8833 29.8344L2.02209 23.6757L1.76624 24.2239C-0.490749 29.3593 -0.116106 31.9178 4.75424 31.9909H16.4321C21.2659 31.9178 25.4966 29.3593 27.7627 24.2239L31.235 16.2651H34.3418L29.042 7.33765L18.2139 16.2651H21.1836L18.9906 21.3365C18.4606 22.4147 17.6565 22.9995 16.7976 23.036H15.2442L6.8833 29.8344Z" fill="#191825" fill-opacity="0.5"/>
<path d="M172.448 0.000121574C172.877 0.000121574 173.243 0.155461 173.544 0.457002C173.846 0.758543 174.001 1.12405 174.001 1.55351C174.001 1.97384 173.846 2.33935 173.544 2.65003C173.243 2.96071 172.877 3.10691 172.448 3.10691C172.244 3.11005 172.041 3.07111 171.852 2.99251C171.664 2.91391 171.493 2.79733 171.351 2.65003C171.05 2.33935 170.895 1.97384 170.895 1.55351C170.895 1.13318 171.05 0.749405 171.351 0.457002C171.493 0.310133 171.664 0.193842 171.852 0.115274C172.041 0.0367063 172.244 -0.00248031 172.448 0.000121574ZM172.448 2.8145C172.616 2.81829 172.782 2.78783 172.938 2.72499C173.093 2.66214 173.235 2.56823 173.353 2.449C173.472 2.33132 173.566 2.19028 173.629 2.03467C173.692 1.87905 173.722 1.71216 173.718 1.54438C173.721 1.37812 173.69 1.21297 173.627 1.05902C173.565 0.905057 173.471 0.765513 173.353 0.648891C173.235 0.52922 173.094 0.435021 172.938 0.372144C172.783 0.309268 172.616 0.279057 172.448 0.283387C172.282 0.279772 172.116 0.310346 171.962 0.373218C171.808 0.436089 171.669 0.529918 171.552 0.648891C171.306 0.895607 171.187 1.19715 171.187 1.54438C171.187 1.89161 171.306 2.20228 171.552 2.449C171.799 2.69571 172.101 2.8145 172.448 2.8145ZM173.243 2.3759H172.877L172.421 1.71799H172.229V2.3759H171.9V0.703717H172.421C172.603 0.703717 172.749 0.749405 172.859 0.831644C172.969 0.92302 173.033 1.04181 173.033 1.19715C173.033 1.39818 172.923 1.55351 172.713 1.63575L173.243 2.3759ZM172.238 1.44386H172.411C172.622 1.44386 172.722 1.36162 172.722 1.20629C172.722 1.05095 172.631 0.977845 172.421 0.977845H172.238V1.44386Z" fill="#191825" fill-opacity="0.5"/>
</svg>
