<svg width="189" height="32" viewBox="0 0 189 32" fill="none" xmlns="http://www.w3.org/2000/svg">
<mask id="mask0_719_138" style="mask-type:luminance" maskUnits="userSpaceOnUse" x="0" y="0" width="189" height="32">
<path d="M188.697 0H0.09375V32H188.697V0Z" fill="white"/>
</mask>
<g mask="url(#mask0_719_138)">
<mask id="mask1_719_138" style="mask-type:luminance" maskUnits="userSpaceOnUse" x="0" y="0" width="189" height="32">
<path d="M188.697 0H0.09375V32H188.697V0Z" fill="white"/>
</mask>
<g mask="url(#mask1_719_138)">
<path d="M74.0508 3.50312C74.0508 1.92283 75.3327 0.633545 76.9204 0.633545C78.5006 0.633545 79.7899 1.91546 79.7899 3.50312C79.7347 5.08342 78.4012 6.31744 76.8172 6.26219C75.3143 6.20693 74.1097 5.00238 74.0508 3.50312Z" fill="#191825" fill-opacity="0.5"/>
</g>
<mask id="mask2_719_138" style="mask-type:luminance" maskUnits="userSpaceOnUse" x="0" y="0" width="189" height="32">
<path d="M188.697 0H0.09375V32H188.697V0Z" fill="white"/>
</mask>
<g mask="url(#mask2_719_138)">
<path d="M119.275 22.6177C119.275 21.0263 120.557 19.7407 122.134 19.7407C123.722 19.7407 125.007 21.0263 125.007 22.6177C125.007 24.2053 123.722 25.4909 122.134 25.4909C120.557 25.4909 119.275 24.2016 119.275 22.6177Z" fill="#191825" fill-opacity="0.5"/>
</g>
<mask id="mask3_719_138" style="mask-type:luminance" maskUnits="userSpaceOnUse" x="0" y="0" width="189" height="32">
<path d="M188.697 0H0.09375V32H188.697V0Z" fill="white"/>
</mask>
<g mask="url(#mask3_719_138)">
<path d="M27.022 21.3763C24.5576 21.3763 22.8373 19.4166 22.8373 16.6133C22.8373 13.8137 24.5539 11.854 27.022 11.854C29.5011 11.854 31.2398 13.8137 31.2398 16.6133C31.2361 19.4608 29.5416 21.3763 27.022 21.3763ZM27.022 7.66939C21.8022 7.66939 18.0117 11.4304 18.0117 16.6133C18.0117 21.7962 21.8059 25.5573 27.022 25.5573C32.2675 25.5573 36.069 21.7962 36.069 16.617C36.069 11.4304 32.2601 7.66939 27.022 7.66939ZM68.5037 17.0627C68.3232 16.7128 68.0911 16.3849 67.8222 16.0976L67.6638 15.9318L67.8296 15.7735C68.069 15.5193 68.3159 15.2209 68.5479 14.8746L73.1562 8.02302H67.5607L64.0981 13.3827C63.9028 13.6738 63.5087 13.8101 62.9156 13.8101H62.1236V3.67629C62.1236 1.65027 60.8638 1.37769 59.4972 1.37769H57.1617L57.1654 25.292H62.1199V18.1236H62.5841C63.1477 18.1236 63.5308 18.1899 63.7113 18.4957L66.4445 23.6565C67.2108 25.0563 67.9696 25.2957 69.3988 25.2957H73.2078L70.375 20.6212L68.5037 17.0627ZM92.5728 7.63255C90.0495 7.63255 88.4397 8.75238 87.5409 9.70277L87.2425 10.0085L87.1357 9.59594C86.8705 8.57925 85.979 8.0267 84.6345 8.0267H82.4132L82.428 25.2957H87.353V17.339C87.353 16.5581 87.4525 15.8876 87.6588 15.2688C88.2076 13.4049 89.7364 12.2408 91.6445 12.2408C93.1806 12.2408 93.7847 13.0512 93.7847 15.1509V22.6729C93.7847 24.4595 94.6099 25.2994 96.4038 25.2994H98.7429L98.7319 14.3147C98.7319 9.93484 96.599 7.63255 92.5728 7.63255ZM76.9835 8.02302H74.6481L74.6628 21.3763V25.292H77.153L77.2414 25.2957L78.4054 25.292H79.5584V25.2884H79.5695L79.5805 10.6495C79.5731 8.88131 78.7296 8.02302 76.9835 8.02302ZM46.3575 21.3763C43.8932 21.3763 42.1729 19.4166 42.1729 16.6133C42.1729 13.8137 43.8932 11.854 46.3575 11.854C48.8329 11.854 50.5753 13.8137 50.5753 16.6133C50.5716 19.4608 48.8771 21.3763 46.3575 21.3763ZM46.3575 7.66939C41.1341 7.66939 37.3399 11.4304 37.3399 16.6133C37.3399 21.7962 41.1341 25.5573 46.3575 25.5573C51.592 25.5573 55.4046 21.7962 55.4046 16.617C55.4046 11.4304 51.5957 7.66939 46.3575 7.66939Z" fill="#191825" fill-opacity="0.5"/>
</g>
</g>
<mask id="mask4_719_138" style="mask-type:luminance" maskUnits="userSpaceOnUse" x="0" y="0" width="189" height="32">
<path d="M188.697 0H0.09375V32H188.697V0Z" fill="white"/>
</mask>
<g mask="url(#mask4_719_138)">
<mask id="mask5_719_138" style="mask-type:luminance" maskUnits="userSpaceOnUse" x="0" y="0" width="189" height="32">
<path d="M188.657 0.629883H0.09375V31.9595H188.657V0.629883Z" fill="white"/>
</mask>
<g mask="url(#mask5_719_138)">
<mask id="mask6_719_138" style="mask-type:luminance" maskUnits="userSpaceOnUse" x="0" y="0" width="189" height="32">
<path d="M188.697 0H0.09375V32H188.697V0Z" fill="white"/>
</mask>
<g mask="url(#mask6_719_138)">
<path d="M151.887 21.3763C149.422 21.3763 147.702 19.4166 147.702 16.6134C147.702 13.8138 149.422 11.8541 151.887 11.8541C154.366 11.8541 156.105 13.8138 156.105 16.6134C156.105 19.4608 154.406 21.3763 151.887 21.3763ZM151.887 7.66943C146.663 7.66943 142.869 11.4305 142.869 16.6134C142.869 21.7963 146.656 25.5573 151.887 25.5573C157.125 25.5573 160.934 21.7963 160.934 16.6171C160.934 11.4305 157.121 7.66943 151.887 7.66943Z" fill="#191825" fill-opacity="0.5"/>
</g>
<mask id="mask7_719_138" style="mask-type:luminance" maskUnits="userSpaceOnUse" x="0" y="0" width="189" height="32">
<path d="M188.697 0H0.09375V32H188.697V0Z" fill="white"/>
</mask>
<g mask="url(#mask7_719_138)">
<path d="M109.107 20.6101C106.415 20.6101 105.461 18.2636 105.461 16.0645C105.461 15.092 105.707 11.9351 108.857 11.9351C110.419 11.9351 112.5 12.3845 112.5 16.2229C112.496 19.8513 110.651 20.6101 109.107 20.6101ZM115.053 7.97883C114.117 7.97883 113.399 8.35088 113.038 9.03236L112.905 9.29758L112.677 9.09498C111.881 8.40613 110.456 7.59204 108.146 7.59204C103.541 7.59204 100.443 11.0473 100.443 16.1971C100.443 21.3395 103.652 24.9311 108.242 24.9311C109.807 24.9311 111.049 24.5627 112.028 23.8186L112.404 23.535V24.0138C112.404 26.3235 110.912 27.5943 108.209 27.5943C106.89 27.5943 105.696 27.2739 104.897 26.9829C103.854 26.6661 103.239 26.9313 102.819 27.9738L102.425 28.9389L101.873 30.3497L102.215 30.5302C103.947 31.4511 106.201 31.9963 108.234 31.9963C112.426 31.9963 117.322 29.8524 117.322 23.8112L117.337 7.96778H115.053" fill="#191825" fill-opacity="0.5"/>
</g>
</g>
</g>
<mask id="mask8_719_138" style="mask-type:luminance" maskUnits="userSpaceOnUse" x="0" y="0" width="189" height="32">
<path d="M188.697 0H0.09375V32H188.697V0Z" fill="white"/>
</mask>
<g mask="url(#mask8_719_138)">
<mask id="mask9_719_138" style="mask-type:luminance" maskUnits="userSpaceOnUse" x="0" y="0" width="189" height="32">
<path d="M188.697 0H0.09375V32H188.697V0Z" fill="white"/>
</mask>
<g mask="url(#mask9_719_138)">
<path d="M8.68774 21.1737L4.67623 21.17V16.3812C4.67623 15.3535 5.07407 14.8267 5.94709 14.7015H8.68037C10.629 14.7015 11.8888 15.9318 11.8962 17.921C11.8962 19.9654 10.6659 21.1737 8.68774 21.1737ZM4.67623 8.25136V6.99154C4.67623 5.88644 5.14037 5.36337 6.16811 5.29706H8.21992C9.97703 5.29706 11.0306 6.35059 11.0306 8.11138C11.0306 9.45592 10.3086 11.0215 8.28254 11.0215H4.67623V8.25136ZM13.8007 13.0328L13.0787 12.6239L13.7086 12.0824C14.449 11.4525 15.6757 10.0269 15.6757 7.56988C15.6757 3.80886 12.7619 1.38501 8.24939 1.38501H2.5176C1.18043 1.4329 0.108485 2.52694 0.09375 3.86412V25.1999H8.35621C13.3734 25.1999 16.6076 22.4703 16.6076 18.2415C16.6076 15.9723 15.5578 14.0237 13.8007 13.0328Z" fill="#191825" fill-opacity="0.5"/>
</g>
<mask id="mask10_719_138" style="mask-type:luminance" maskUnits="userSpaceOnUse" x="0" y="0" width="189" height="32">
<path d="M188.697 0H0.09375V32H188.697V0Z" fill="white"/>
</mask>
<g mask="url(#mask10_719_138)">
<path d="M182.926 7.68776C180.87 7.69145 178.921 8.63815 177.639 10.2516L177.282 10.701L177.002 10.1963C176.089 8.53133 174.523 7.69145 172.335 7.69145C170.047 7.69145 168.511 8.966 167.797 9.72852L167.333 10.2332L167.152 9.56644C166.894 8.60868 166.04 8.08192 164.75 8.08192H162.68L162.658 25.2846H167.358V17.6889C167.358 17.0222 167.439 16.3665 167.605 15.6776C168.055 13.8432 169.289 11.8687 171.363 12.064C172.637 12.1892 173.263 13.1764 173.263 15.0809V25.281H177.997V17.6852C177.997 16.8527 178.074 16.2265 178.262 15.6076C178.638 13.8542 179.931 12.0566 181.931 12.0566C183.379 12.0566 183.916 12.8744 183.916 15.0809V22.765C183.916 24.5 184.69 25.281 186.429 25.281H188.639L188.643 14.2999C188.657 9.90902 186.723 7.68776 182.926 7.68776ZM140.147 19.3097C140.132 19.3245 138.11 21.461 135.447 21.461C133.019 21.461 130.57 19.9728 130.57 16.6501C130.57 13.7806 132.47 11.773 135.193 11.773C136.077 11.773 137.079 12.0897 137.237 12.6202L137.259 12.7086C137.465 13.4638 138.154 13.9831 138.932 13.9795L141.506 13.9832V11.7287C141.506 8.75603 137.731 7.68408 135.185 7.68408C129.748 7.68408 125.807 11.4672 125.807 16.6796C125.807 21.8883 129.708 25.6714 135.086 25.6714C139.753 25.6714 142.287 22.6029 142.313 22.5771L142.446 22.4114L140.405 19.0261L140.147 19.3097Z" fill="#191825" fill-opacity="0.5"/>
</g>
</g>
</svg>
