<svg width="184" height="177" viewBox="0 0 184 177" fill="none" xmlns="http://www.w3.org/2000/svg">
<g clip-path="url(#clip0_719_385)">
<path d="M4.84047 128.32C3.40047 128.32 2.23047 129.5 2.23047 130.95C2.23047 132.4 3.40047 133.58 4.84047 133.58C6.28047 133.58 7.45047 132.4 7.45047 130.95C7.45047 129.5 6.28047 128.32 4.84047 128.32Z" fill="#FF5722"/>
<path d="M49.5006 133.58C50.9421 133.58 52.1106 132.403 52.1106 130.95C52.1106 129.498 50.9421 128.32 49.5006 128.32C48.0592 128.32 46.8906 129.498 46.8906 130.95C46.8906 132.403 48.0592 133.58 49.5006 133.58Z" fill="#FF5722"/>
<path d="M27.1705 128.32C25.7305 128.32 24.5605 129.5 24.5605 130.95C24.5605 132.4 25.7305 133.58 27.1705 133.58C28.6105 133.58 29.7805 132.4 29.7805 130.95C29.7805 129.5 28.6105 128.32 27.1705 128.32Z" fill="#FF5722"/>
<path d="M26.7995 106.94C25.3595 106.94 24.1895 108.12 24.1895 109.57C24.1895 111.02 25.3595 112.2 26.7995 112.2C28.2395 112.2 29.4095 111.02 29.4095 109.57C29.4095 108.12 28.2395 106.94 26.7995 106.94Z" fill="#FF5722"/>
<path d="M4.46937 106.94C3.02937 106.94 1.85938 108.12 1.85938 109.57C1.85938 111.02 3.02937 112.2 4.46937 112.2C5.90937 112.2 7.07937 111.02 7.07937 109.57C7.07937 108.12 5.90937 106.94 4.46937 106.94Z" fill="#FF5722"/>
<path d="M71.4596 106.94C70.0196 106.94 68.8496 108.12 68.8496 109.57C68.8496 111.02 70.0196 112.2 71.4596 112.2C72.8996 112.2 74.0696 111.02 74.0696 109.57C74.0696 108.12 72.8996 106.94 71.4596 106.94Z" fill="#FF5722"/>
<path d="M49.1295 106.94C47.6895 106.94 46.5195 108.12 46.5195 109.57C46.5195 111.02 47.6895 112.2 49.1295 112.2C50.5695 112.2 51.7395 111.02 51.7395 109.57C51.7395 108.12 50.5695 106.94 49.1295 106.94Z" fill="#FF5722"/>
<path d="M4.84047 171.1C3.40047 171.1 2.23047 172.28 2.23047 173.73C2.23047 175.18 3.40047 176.36 4.84047 176.36C6.28047 176.36 7.45047 175.18 7.45047 173.73C7.45047 172.28 6.28047 171.1 4.84047 171.1Z" fill="#FF5722"/>
<path d="M26.7995 149.71C25.3595 149.71 24.1895 150.89 24.1895 152.34C24.1895 153.79 25.3595 154.97 26.7995 154.97C28.2395 154.97 29.4095 153.79 29.4095 152.34C29.4095 150.89 28.2395 149.71 26.7995 149.71Z" fill="#FF5722"/>
<path d="M4.46937 149.71C3.02937 149.71 1.85938 150.89 1.85938 152.34C1.85938 153.79 3.02937 154.97 4.46937 154.97C5.90937 154.97 7.07937 153.79 7.07937 152.34C7.07937 150.89 5.90937 149.71 4.46937 149.71Z" fill="#FF5722"/>
<path d="M93.4205 85.55C91.9805 85.55 90.8105 86.73 90.8105 88.18C90.8105 89.63 91.9805 90.81 93.4205 90.81C94.8605 90.81 96.0305 89.63 96.0305 88.18C96.0305 86.73 94.8605 85.55 93.4205 85.55Z" fill="#FF5722"/>
<path d="M48.7604 85.55C47.3204 85.55 46.1504 86.73 46.1504 88.18C46.1504 89.63 47.3204 90.81 48.7604 90.81C50.2004 90.81 51.3704 89.63 51.3704 88.18C51.3704 86.73 50.2004 85.55 48.7604 85.55Z" fill="#FF5722"/>
<path d="M71.0905 90.81C72.5319 90.81 73.7005 89.6326 73.7005 88.18C73.7005 86.7275 72.5319 85.55 71.0905 85.55C69.649 85.55 68.4805 86.7275 68.4805 88.18C68.4805 89.6326 69.649 90.81 71.0905 90.81Z" fill="#FF5722"/>
<path d="M26.4205 85.55C24.9805 85.55 23.8105 86.73 23.8105 88.18C23.8105 89.63 24.9805 90.81 26.4205 90.81C27.8605 90.81 29.0305 89.63 29.0305 88.18C29.0305 86.73 27.8705 85.55 26.4205 85.55Z" fill="#FF5722"/>
<path d="M4.09047 85.55C2.65047 85.55 1.48047 86.73 1.48047 88.18C1.48047 89.63 2.65047 90.81 4.09047 90.81C5.53047 90.81 6.70047 89.63 6.70047 88.18C6.70047 86.73 5.53047 85.55 4.09047 85.55Z" fill="#FF5722"/>
<path d="M93.0397 64.16C91.5997 64.16 90.4297 65.34 90.4297 66.79C90.4297 68.24 91.5997 69.42 93.0397 69.42C94.4797 69.42 95.6497 68.24 95.6497 66.79C95.6497 65.34 94.4797 64.16 93.0397 64.16Z" fill="#FF5722"/>
<path d="M70.7096 64.16C69.2696 64.16 68.0996 65.34 68.0996 66.79C68.0996 68.24 69.2696 69.42 70.7096 69.42C72.1496 69.42 73.3196 68.24 73.3196 66.79C73.3196 65.34 72.1496 64.16 70.7096 64.16Z" fill="#FF5722"/>
<path d="M48.3795 64.16C46.9395 64.16 45.7695 65.34 45.7695 66.79C45.7695 68.24 46.9395 69.42 48.3795 69.42C49.8195 69.42 50.9895 68.24 50.9895 66.79C50.9895 65.34 49.8195 64.16 48.3795 64.16Z" fill="#FF5722"/>
<path d="M115.38 64.16C113.94 64.16 112.77 65.34 112.77 66.79C112.77 68.24 113.94 69.42 115.38 69.42C116.82 69.42 117.99 68.24 117.99 66.79C117.99 65.34 116.82 64.16 115.38 64.16Z" fill="#FF5722"/>
<path d="M3.71938 64.16C2.27938 64.16 1.10938 65.34 1.10938 66.79C1.10938 68.24 2.27938 69.42 3.71938 69.42C5.15938 69.42 6.32937 68.24 6.32937 66.79C6.32937 65.34 5.15938 64.16 3.71938 64.16Z" fill="#FF5722"/>
<path d="M26.0495 64.16C24.6095 64.16 23.4395 65.34 23.4395 66.79C23.4395 68.24 24.6095 69.42 26.0495 69.42C27.4895 69.42 28.6595 68.24 28.6595 66.79C28.6595 65.34 27.4895 64.16 26.0495 64.16Z" fill="#FF5722"/>
<path d="M3.35023 42.77C1.91023 42.77 0.740234 43.95 0.740234 45.4C0.740234 46.85 1.91023 48.03 3.35023 48.03C4.79023 48.03 5.96023 46.85 5.96023 45.4C5.96023 43.95 4.79023 42.77 3.35023 42.77Z" fill="#FF5722"/>
<path d="M92.6705 48.03C94.112 48.03 95.2805 46.8525 95.2805 45.4C95.2805 43.9475 94.112 42.77 92.6705 42.77C91.2291 42.77 90.0605 43.9475 90.0605 45.4C90.0605 46.8525 91.2291 48.03 92.6705 48.03Z" fill="#FF5722"/>
<path d="M137.331 48.03C138.772 48.03 139.941 46.8525 139.941 45.4C139.941 43.9475 138.772 42.77 137.331 42.77C135.889 42.77 134.721 43.9475 134.721 45.4C134.721 46.8525 135.889 48.03 137.331 48.03Z" fill="#FF5722"/>
<path d="M70.3405 42.77C68.9005 42.77 67.7305 43.95 67.7305 45.4C67.7305 46.85 68.9005 48.03 70.3405 48.03C71.7805 48.03 72.9505 46.85 72.9505 45.4C72.9505 43.95 71.7805 42.77 70.3405 42.77Z" fill="#FF5722"/>
<path d="M48.0104 42.77C46.5704 42.77 45.4004 43.95 45.4004 45.4C45.4004 46.85 46.5704 48.03 48.0104 48.03C49.4504 48.03 50.6204 46.85 50.6204 45.4C50.6204 43.95 49.4504 42.77 48.0104 42.77Z" fill="#FF5722"/>
<path d="M25.6803 42.77C24.2403 42.77 23.0703 43.95 23.0703 45.4C23.0703 46.85 24.2403 48.03 25.6803 48.03C27.1203 48.03 28.2903 46.85 28.2903 45.4C28.2903 43.95 27.1203 42.77 25.6803 42.77Z" fill="#FF5722"/>
<path d="M115.001 42.77C113.561 42.77 112.391 43.95 112.391 45.4C112.391 46.85 113.561 48.03 115.001 48.03C116.441 48.03 117.611 46.85 117.611 45.4C117.611 43.95 116.441 42.77 115.001 42.77Z" fill="#FF5722"/>
<path d="M2.97914 26.64C4.4206 26.64 5.58914 25.4625 5.58914 24.01C5.58914 22.5575 4.4206 21.38 2.97914 21.38C1.53768 21.38 0.369141 22.5575 0.369141 24.01C0.369141 25.4625 1.53768 26.64 2.97914 26.64Z" fill="#FF5722"/>
<path d="M114.63 21.39C113.19 21.39 112.02 22.57 112.02 24.02C112.02 25.47 113.19 26.65 114.63 26.65C116.07 26.65 117.24 25.47 117.24 24.02C117.24 22.57 116.07 21.39 114.63 21.39Z" fill="#FF5722"/>
<path d="M25.3092 21.39C23.8692 21.39 22.6992 22.57 22.6992 24.02C22.6992 25.47 23.8692 26.65 25.3092 26.65C26.7492 26.65 27.9192 25.47 27.9192 24.02C27.9192 22.57 26.7492 21.39 25.3092 21.39Z" fill="#FF5722"/>
<path d="M69.9694 21.39C68.5294 21.39 67.3594 22.57 67.3594 24.02C67.3594 25.47 68.5294 26.65 69.9694 26.65C71.4094 26.65 72.5794 25.47 72.5794 24.02C72.5794 22.57 71.4094 21.39 69.9694 21.39Z" fill="#FF5722"/>
<path d="M47.6393 21.39C46.1993 21.39 45.0293 22.57 45.0293 24.02C45.0293 25.47 46.1993 26.65 47.6393 26.65C49.0793 26.65 50.2493 25.47 50.2493 24.02C50.2493 22.57 49.0793 21.39 47.6393 21.39Z" fill="#FF5722"/>
<path d="M92.2995 21.39C90.8595 21.39 89.6895 22.57 89.6895 24.02C89.6895 25.47 90.8595 26.65 92.2995 26.65C93.7395 26.65 94.9095 25.47 94.9095 24.02C94.9095 22.57 93.7395 21.39 92.2995 21.39Z" fill="#FF5722"/>
<path d="M159.29 21.39C157.85 21.39 156.68 22.57 156.68 24.02C156.68 25.47 157.85 26.65 159.29 26.65C160.73 26.65 161.9 25.47 161.9 24.02C161.9 22.57 160.74 21.39 159.29 21.39Z" fill="#FF5722"/>
<path d="M136.96 21.39C135.52 21.39 134.35 22.57 134.35 24.02C134.35 25.47 135.52 26.65 136.96 26.65C138.4 26.65 139.57 25.47 139.57 24.02C139.57 22.57 138.41 21.39 136.96 21.39Z" fill="#FF5722"/>
<path d="M24.9401 5.24999C26.3801 5.24999 27.5501 4.06999 27.5501 2.61999C27.5501 1.16999 26.3801 -0.0100098 24.9401 -0.0100098C23.5001 -0.0100098 22.3301 1.16999 22.3301 2.61999C22.3301 4.06999 23.5001 5.24999 24.9401 5.24999Z" fill="#FF5722"/>
<path d="M2.61 5.25C4.05 5.25 5.22 4.07 5.22 2.62C5.22 1.17 4.04 0 2.61 0C1.18 0 0 1.18 0 2.63C0 4.08 1.17 5.26 2.61 5.26V5.25Z" fill="#FF5722"/>
<path d="M158.921 5.26C160.362 5.26 161.531 4.08251 161.531 2.63C161.531 1.17749 160.362 0 158.921 0C157.479 0 156.311 1.17749 156.311 2.63C156.311 4.08251 157.479 5.26 158.921 5.26Z" fill="#FF5722"/>
<path d="M91.9303 5.24999C93.3703 5.24999 94.5403 4.06999 94.5403 2.61999C94.5403 1.16999 93.3703 -0.0100098 91.9303 -0.0100098C90.4903 -0.0100098 89.3203 1.16999 89.3203 2.61999C89.3203 4.06999 90.4903 5.24999 91.9303 5.24999Z" fill="#FF5722"/>
<path d="M114.26 5.24999C115.7 5.24999 116.87 4.06999 116.87 2.61999C116.87 1.16999 115.7 -0.0100098 114.26 -0.0100098C112.82 -0.0100098 111.65 1.16999 111.65 2.61999C111.65 4.06999 112.82 5.24999 114.26 5.24999Z" fill="#FF5722"/>
<path d="M136.59 5.24999C138.03 5.24999 139.2 4.06999 139.2 2.61999C139.2 1.16999 138.03 -0.0100098 136.59 -0.0100098C135.15 -0.0100098 133.98 1.16999 133.98 2.61999C133.98 4.06999 135.15 5.24999 136.59 5.24999Z" fill="#FF5722"/>
<path d="M47.2702 5.24999C48.7102 5.24999 49.8802 4.06999 49.8802 2.61999C49.8802 1.16999 48.7102 -0.0100098 47.2702 -0.0100098C45.8302 -0.0100098 44.6602 1.16999 44.6602 2.61999C44.6602 4.06999 45.8302 5.24999 47.2702 5.24999Z" fill="#FF5722"/>
<path d="M181.251 5.24999C182.691 5.24999 183.861 4.06999 183.861 2.61999C183.861 1.16999 182.701 -0.0100098 181.251 -0.0100098C179.801 -0.0100098 178.641 1.16999 178.641 2.61999C178.641 4.06999 179.811 5.24999 181.251 5.24999Z" fill="#FF5722"/>
<path d="M69.6002 5.24999C71.0402 5.24999 72.2102 4.06999 72.2102 2.61999C72.2102 1.16999 71.0402 -0.0100098 69.6002 -0.0100098C68.1602 -0.0100098 66.9902 1.16999 66.9902 2.61999C66.9902 4.06999 68.1602 5.24999 69.6002 5.24999Z" fill="#FF5722"/>
</g>
<defs>
<clipPath id="clip0_719_385">
<rect width="183.86" height="176.35" fill="white"/>
</clipPath>
</defs>
</svg>
