<svg width="114" height="32" viewBox="0 0 114 32" fill="none" xmlns="http://www.w3.org/2000/svg">
<path d="M54.7708 25.0368H51.2558C51.2336 25.0368 51.2336 25.0368 51.2225 25.0257L48.1969 21.3327L45.1714 25.0257C45.1602 25.0368 45.1491 25.0368 45.138 25.0368H42.3238C42.3015 25.0368 42.2904 25.0257 42.2793 25.0146C42.2793 25.0034 42.2793 24.9812 42.2904 24.9701L46.7509 19.4974L42.346 14.0803C42.3349 14.0581 42.3349 14.0469 42.3349 14.0247C42.346 14.0136 42.3572 14.0024 42.3683 14.0024H45.8833C45.8944 14.0024 45.9055 14.0136 45.9166 14.0247L48.5751 17.3172L51.2781 14.0247C51.2892 14.0136 51.3003 14.0024 51.3115 14.0024H54.1702C54.1813 14.0024 54.2035 14.0136 54.2147 14.0247C54.2258 14.0469 54.2147 14.0581 54.2035 14.0803L50.0323 19.0969L54.8153 24.9701C54.8264 24.9812 54.8264 25.0034 54.8264 25.0146C54.8042 25.0368 54.7931 25.0368 54.7708 25.0368Z" fill="#191825" fill-opacity="0.5"/>
<path d="M73.7818 15.9379C72.2246 15.9379 71.1678 16.8834 70.8564 18.5185H76.1511V18.4073C76.1511 17.1059 75.1834 15.9379 73.7818 15.9379ZM78.8763 20.2093C78.8652 20.2204 78.8541 20.2315 78.843 20.2315H70.8008C70.9676 22.1002 72.1801 23.1681 74.1489 23.1681C75.3613 23.1681 76.6517 22.7565 78.4648 21.7888C78.4981 21.7665 78.5315 21.7999 78.5315 21.8333V24.3027C78.5315 24.3249 78.5204 24.336 78.5093 24.336C76.8185 25.0479 75.1166 25.5374 73.7818 25.5374C70.3225 25.5374 67.8086 23.0124 67.8086 19.5419C67.8086 16.0714 70.3225 13.5464 73.7818 13.5464C76.9409 13.5464 78.9653 15.6709 78.9653 18.5964C78.9653 19.0747 78.8875 20.1759 78.8763 20.2093Z" fill="#191825" fill-opacity="0.5"/>
<path d="M95.2049 11.711C94.2149 11.711 93.4141 10.9212 93.4141 9.95349C93.4141 8.95239 94.2149 8.14038 95.2049 8.14038C96.1949 8.14038 96.9958 8.95239 96.9958 9.95349C96.9958 10.9212 96.1949 11.711 95.2049 11.711ZM93.7589 25.0368C93.7255 25.0368 93.7144 25.0256 93.7144 24.9923V14.0358C93.7144 14.0135 93.7255 13.9913 93.7478 13.9913H96.651C96.6732 13.9913 96.6843 14.0135 96.6843 14.0358V24.9923C96.6843 25.0256 96.6621 25.0368 96.6398 25.0368H93.7589Z" fill="#191825" fill-opacity="0.5"/>
<path d="M60.0884 23.3906C59.5656 23.3906 59.0317 23.3127 58.4088 23.157L58.4199 16.127C59.1429 15.8934 59.7658 15.7933 60.3887 15.7933C62.4021 15.7933 63.748 17.2727 63.748 19.4863C63.748 21.8555 62.3131 23.3906 60.0884 23.3906ZM60.8782 13.5464C60.055 13.5464 59.2319 13.691 58.3643 13.9913H55.4722C55.45 13.9913 55.4277 14.0136 55.4277 14.0358V32C56.2954 31.8777 57.3632 31.5662 58.4088 30.8321V25.3705C59.1207 25.4706 59.7102 25.5374 60.2775 25.5374C64.2374 25.5374 66.7958 23.1681 66.7958 19.4974C66.7958 15.9935 64.3598 13.5464 60.8782 13.5464Z" fill="#191825" fill-opacity="0.5"/>
<path d="M88.4749 22.4783C87.5739 22.9566 86.7619 23.1791 86.0055 23.1791C84.2147 23.1791 83.1357 21.911 83.1357 19.7865C83.1357 17.3393 84.5039 15.7487 86.6284 15.7487C87.218 15.7487 87.7852 15.8933 88.4749 16.2047V22.4783ZM88.4749 8.19592V13.9244C87.6295 13.6797 86.8843 13.5685 86.1279 13.5685C82.6796 13.5685 80.0879 16.1602 80.0879 19.6085C80.0879 23.0345 82.3793 25.5261 85.5383 25.5261C86.6284 25.5261 87.6518 25.248 88.8531 24.6362V25.6262C89.6428 25.4705 90.555 25.159 91.456 24.5139V7.01685C90.5772 7.1392 89.5316 7.43953 88.4749 8.19592Z" fill="#191825" fill-opacity="0.5"/>
<path d="M106.75 22.4562C105.872 22.9567 105.126 23.2014 104.459 23.2014C102.535 23.2014 101.389 21.9334 101.389 19.8088C101.389 17.395 102.746 15.771 104.759 15.771C105.293 15.771 105.949 15.9824 106.75 16.4051V22.4562ZM109.731 13.8578C109.731 13.7911 109.676 13.7355 109.609 13.7355H107.262C107.195 13.7355 107.128 13.7911 107.128 13.8578V14.2583H107.073C105.994 13.7799 105.06 13.5686 104.159 13.5686C100.911 13.5686 98.3633 16.2605 98.3633 19.7087C98.3633 23.1903 100.644 25.5262 104.036 25.5262C104.937 25.5262 106.105 25.4595 107.195 24.2136V25.6263C107.963 25.4595 108.875 25.1369 109.731 24.514V13.8578Z" fill="#191825" fill-opacity="0.5"/>
<path d="M34.2935 22.3004H41.5793C41.468 23.1124 41.1899 24.069 40.567 25.0367H32.992C32.0688 25.0367 31.3013 24.3137 31.2123 23.4127C31.2123 23.4016 31.2012 23.3905 31.2012 23.3682V8.99687C31.2012 8.98575 31.2123 8.97462 31.2123 8.9635C31.3013 8.05139 32.0688 7.32837 32.992 7.32837H41.5681C41.4569 8.14037 41.1788 9.11923 40.5448 10.087H34.2935V14.0024H40.4892C40.5114 14.0024 40.5337 14.0246 40.5337 14.0469V16.761C40.5337 16.7832 40.5114 16.8055 40.4892 16.8055H34.2935V22.3004Z" fill="#191825" fill-opacity="0.5"/>
<path d="M25.1729 25.2704C24.4498 25.2704 24.0049 24.7031 24.0049 24.0135C24.0049 23.2793 24.5166 22.7565 25.1729 22.7565C25.818 22.7565 26.3297 23.2682 26.3297 24.0135C26.3297 24.7587 25.818 25.2704 25.1729 25.2704ZM25.1729 22.623C24.4387 22.623 23.8047 23.1792 23.8047 24.0135C23.8047 24.8032 24.372 25.4039 25.1729 25.4039C25.8959 25.4039 26.5299 24.8477 26.5299 24.0135C26.5299 23.1792 25.907 22.623 25.1729 22.623Z" fill="#191825" fill-opacity="0.5"/>
<path d="M24.8496 23.9022V23.3905H25.1944C25.3724 23.3905 25.5726 23.4128 25.5726 23.6241C25.5726 23.88 25.3835 23.8911 25.1722 23.8911C25.161 23.9022 24.8496 23.9022 24.8496 23.9022ZM25.8173 23.6575C25.8173 23.3238 25.6171 23.1792 25.2167 23.1792H24.5938V24.8255H24.8607V24.1247H25.1165L25.5392 24.8255H25.8507L25.3946 24.1024C25.6393 24.0802 25.8173 23.9578 25.8173 23.6575Z" fill="#191825" fill-opacity="0.5"/>
<path d="M112.134 15.8154C111.411 15.8154 110.966 15.2481 110.966 14.5585C110.966 13.8244 111.478 13.3016 112.134 13.3016C112.779 13.3016 113.291 13.8132 113.291 14.5585C113.291 15.3038 112.779 15.8154 112.134 15.8154ZM112.134 13.1792C111.4 13.1792 110.766 13.7354 110.766 14.5696C110.766 15.3594 111.333 15.96 112.134 15.96C112.857 15.96 113.491 15.4039 113.491 14.5696C113.491 13.7242 112.857 13.1792 112.134 13.1792Z" fill="#191825" fill-opacity="0.5"/>
<path d="M111.801 14.4472V13.9467H112.146C112.324 13.9467 112.524 13.9689 112.524 14.1803C112.524 14.4361 112.335 14.4472 112.124 14.4472H111.801ZM112.78 14.2137C112.78 13.88 112.58 13.7354 112.18 13.7354H111.557V15.3816H111.824V14.6808H112.079L112.502 15.3816H112.814L112.358 14.6586C112.591 14.6363 112.78 14.514 112.78 14.2137Z" fill="#191825" fill-opacity="0.5"/>
<path d="M15.7727 10.0759L15.2499 8.58534L10.756 2.58985L11.5569 2.38963L19.2876 9.07476L23.8371 7.77333C24.371 7.63985 24.9828 7.60648 25.4388 7.60648C24.0151 4.52531 21.3899 1.98919 17.9417 0.765622C11.1231 -1.67039 3.61483 1.9002 1.18994 8.72994C0.433553 10.8434 0.266703 13.0236 0.578157 15.0925L11.4679 11.3106L15.7727 10.0759Z" fill="#191825" fill-opacity="0.5"/>
<path d="M25.9283 8.78564C25.5279 9.04148 24.9384 9.38631 24.3599 9.5754L19.7994 10.8768L16.7627 20.6431L15.9729 20.899L16.6181 13.4463L16.2621 11.9002L11.9908 13.1238L0.689453 15.76C1.59044 20.0981 4.66049 23.8912 9.1432 25.4818C15.9729 27.9178 23.4701 24.3472 25.9061 17.5175C26.9517 14.592 26.8849 11.522 25.9283 8.78564Z" fill="#191825" fill-opacity="0.5"/>
<path d="M16.2503 11.8889L16.6063 13.435L15.9611 20.8877L16.7509 20.6318L19.7876 10.8655L24.3481 9.5641C24.9265 9.37501 25.5161 9.0413 25.9165 8.77434C25.7719 8.3739 25.6162 7.98459 25.4382 7.59527C24.971 7.59527 24.3704 7.61752 23.8365 7.76212L19.287 9.06355L11.5563 2.37842L10.7554 2.57864L15.2381 8.57412L15.7609 10.0647L11.4562 11.2993L0.566406 15.0813C0.599776 15.3038 0.64427 15.5373 0.688763 15.7598L11.979 13.1013L16.2503 11.8889Z" fill="white"/>
</svg>
