<svg width="32" height="32" viewBox="0 0 32 32" fill="none" xmlns="http://www.w3.org/2000/svg">
<path d="M16 32C24.8366 32 32 24.8366 32 16C32 7.16344 24.8366 0 16 0C7.16344 0 0 7.16344 0 16C0 24.8366 7.16344 32 16 32Z" fill="#5D50C6"/>
<path d="M20.7992 8.19995H11.1992C9.53255 8.19995 8.19922 9.53328 8.19922 11.2V20.8C8.19922 22.4666 9.53255 23.8 11.1992 23.8H20.7992C22.4659 23.8 23.7992 22.4666 23.7992 20.8V11.1999C23.7992 9.53328 22.4659 8.19995 20.7992 8.19995ZM21.6659 9.99995H21.9992V12.6666H19.3326V9.99995H21.6659ZM13.7992 14.4C14.2659 13.7333 15.1326 13.2666 15.9992 13.2666C16.8659 13.2666 17.7326 13.7333 18.1992 14.4C18.5326 14.8666 18.7326 15.4 18.7326 16C18.7326 17.5333 17.4659 18.7333 15.9992 18.7333C14.5326 18.7333 13.2659 17.5333 13.2659 16C13.2659 15.4 13.4659 14.8666 13.7992 14.4ZM22.2659 20.8C22.2659 21.6 21.5992 22.2666 20.7992 22.2666H11.1992C10.3992 22.2666 9.73255 21.6 9.73255 20.8V14.4H12.0659C11.8659 14.8666 11.7326 15.4666 11.7326 16C11.7326 18.3333 13.6659 20.2666 15.9992 20.2666C18.3326 20.2666 20.2659 18.3333 20.2659 16C20.2659 15.4666 20.1325 14.8666 19.9326 14.4H22.2659L22.2659 20.8Z" fill="white"/>
</svg>
