<svg width="32" height="32" viewBox="0 0 32 32" fill="none" xmlns="http://www.w3.org/2000/svg">
<path d="M16 32C24.8366 32 32 24.8366 32 16C32 7.16344 24.8366 0 16 0C7.16344 0 0 7.16344 0 16C0 24.8366 7.16344 32 16 32Z" fill="#5D50C6"/>
<path d="M25.8012 11.4988C25.1156 11.8028 24.378 12.0084 23.6045 12.1003C24.3943 11.6271 25.0004 10.8784 25.2864 9.98483C24.5474 10.4232 23.7286 10.7412 22.8578 10.9126C22.1602 10.1697 21.1662 9.70532 20.0656 9.70532C17.9538 9.70532 16.2411 11.418 16.2411 13.5298C16.2411 13.8295 16.2751 14.1213 16.3407 14.4014C13.1622 14.242 10.344 12.7195 8.4576 10.405C8.12846 10.9697 7.93965 11.6271 7.93965 12.3279C7.93965 13.6544 8.61532 14.8255 9.64096 15.5112C9.01434 15.4915 8.42423 15.3195 7.90885 15.0323C7.90856 15.0485 7.90856 15.0648 7.90856 15.0808C7.90856 16.9338 9.2274 18.4794 10.9766 18.8305C10.656 18.9183 10.3175 18.9648 9.96924 18.9648C9.72224 18.9648 9.48295 18.9412 9.24964 18.8967C9.73622 20.4157 11.1483 21.5215 12.8222 21.5526C11.5131 22.5785 9.86428 23.1897 8.07199 23.1897C7.76396 23.1897 7.45878 23.1718 7.16016 23.1361C8.85177 24.2216 10.8625 24.8545 13.0222 24.8545C20.0567 24.8545 23.9037 19.027 23.9037 13.9727C23.9037 13.807 23.9 13.6419 23.8926 13.4781C24.6404 12.9391 25.2887 12.2657 25.8012 11.4988Z" fill="#F1F2F2"/>
</svg>
