<svg width="1440" height="1256" viewBox="0 0 1440 1256" fill="none" xmlns="http://www.w3.org/2000/svg">
<path d="M-619.125 1157.95C-623.071 1134.68 -609.65 792.905 -485.309 509.924C-373.695 256.266 -114.144 111.698 189.634 294.01C515.12 489.404 795.874 509.053 1022.25 452.055C1245.67 395.545 1394.25 225.274 1460.97 116.699C1605.79 -117.932 1819.72 27.199 1744.58 335.907C1709.12 479.51 1615.65 519.66 1453.68 534.56C1284.38 550.135 1034.25 517.074 687.308 584.45C352.717 649.682 -23.808 806.345 -235.533 1005.76C-460.86 1218.16 -586.092 1361 -619.125 1157.95Z" fill="url(#paint0_linear_719_336)"/>
<defs>
<linearGradient id="paint0_linear_719_336" x1="1636.47" y1="973.32" x2="-567.859" y2="290.04" gradientUnits="userSpaceOnUse">
<stop stop-color="#5D50C6"/>
<stop offset="1" stop-color="#F85E9F"/>
</linearGradient>
</defs>
</svg>
