<svg width="112" height="352" viewBox="0 0 112 352" fill="none" xmlns="http://www.w3.org/2000/svg">
<g clip-path="url(#clip0_719_431)">
<path d="M189.886 0.560346C214.996 -1.37388 239.832 18.6436 243.266 43.594C245.051 56.5041 241.755 69.8033 244.193 82.6104C247.615 100.591 261.692 114.588 276.411 125.484C291.129 136.38 307.45 145.673 319.021 159.854C330.603 174.034 336.326 195.185 326.632 210.716C317.258 225.743 296.76 230.973 287.558 246.115C272.588 270.734 295.764 304.806 283.072 330.672C276.663 343.731 261.795 351.388 247.249 351.525C232.702 351.662 218.67 345.184 207.397 335.982C194.098 325.132 183.431 310.162 167.339 304.199C141.141 294.505 113.604 312.325 86.2158 317.796C60.4185 322.958 31.3822 315.702 14.2031 295.776C-2.976 275.85 -4.91023 242.979 12.967 223.671C22.6153 213.245 37.3223 206.538 41.9232 193.09C47.6343 176.403 34.8616 159.785 25.3278 144.952C17.4192 132.648 11.1816 118.743 10.8268 104.127C10.472 89.5004 16.9271 74.1181 29.551 66.7246C60.3269 48.6756 101.827 83.3887 130.852 58.2094C153.273 38.7756 152.506 3.44452 189.886 0.560346Z" stroke="#FF5722" stroke-width="0.858384" stroke-miterlimit="10"/>
<path d="M188.616 9.89964C212.388 8.06842 235.908 27.0215 239.158 50.6443C240.841 62.8677 237.727 75.4573 240.039 87.5777C243.278 104.608 256.612 117.85 270.541 128.162C284.469 138.474 299.92 147.275 310.885 160.701C321.849 174.126 327.263 194.143 318.095 208.85C309.214 223.076 289.814 228.032 281.093 242.361C266.924 265.664 288.864 297.928 276.847 322.42C270.781 334.781 256.704 342.026 242.924 342.163C229.155 342.3 215.867 336.154 205.2 327.456C192.611 317.19 182.516 303.009 167.271 297.367C142.47 288.188 116.398 305.058 90.4746 310.242C66.0507 315.13 38.5595 308.262 22.296 289.401C6.02108 270.539 4.2013 239.42 21.1286 221.142C30.2733 211.277 44.1905 204.913 48.5397 192.198C53.9418 176.403 41.8557 160.666 32.8255 146.623C25.3404 134.972 19.4348 121.81 19.0914 107.973C18.748 94.1243 24.8712 79.5661 36.8199 72.5617C65.9592 55.4741 105.25 88.3445 132.719 64.5043C153.938 46.0891 153.217 12.6465 188.616 9.91109V9.89964Z" stroke="#FF5722" stroke-width="0.824049" stroke-linecap="round" stroke-linejoin="round"/>
<path d="M187.345 19.2389C209.777 17.5107 231.969 35.3995 235.048 57.6831C236.639 69.2198 233.698 81.0998 235.872 92.5449C238.928 108.614 251.518 121.112 264.657 130.852C277.807 140.592 292.388 148.889 302.735 161.559C313.081 174.229 318.197 193.125 309.533 207.008C301.155 220.433 282.843 225.114 274.614 238.642C261.246 260.639 281.95 291.083 270.608 314.191C264.886 325.865 251.598 332.698 238.596 332.824C225.594 332.95 213.062 327.158 202.99 318.941C191.11 309.247 181.577 295.867 167.201 290.545C143.796 281.882 119.189 297.802 94.7196 302.689C71.6691 307.301 45.7344 300.823 30.3751 283.015C15.0157 265.217 13.299 235.838 29.2764 218.59C37.906 209.274 51.0335 203.276 55.1423 191.271C60.2469 176.358 48.8361 161.513 40.3095 148.26C33.2364 137.272 27.674 124.843 27.3536 111.784C27.0331 98.7138 32.8015 84.9683 44.0749 78.3644C71.5775 62.2383 108.648 93.2545 134.583 70.7649C154.612 53.3912 153.925 21.8255 187.333 19.2504L187.345 19.2389Z" stroke="#FF5722" stroke-width="0.789713" stroke-linecap="round" stroke-linejoin="round"/>
<path d="M186.076 28.5782C207.169 26.953 228.045 43.7774 230.929 64.7334C232.428 75.5833 229.659 86.7538 231.707 97.5122C234.591 112.62 246.414 124.385 258.775 133.53C271.136 142.686 284.847 150.492 294.587 162.406C304.315 174.32 309.122 192.095 300.985 205.142C293.11 217.778 275.885 222.161 268.148 234.888C255.57 255.569 275.05 284.205 264.383 305.939C258.992 316.915 246.506 323.347 234.282 323.462C222.059 323.576 210.271 318.128 200.805 310.403C189.635 301.293 180.673 288.703 167.145 283.701C145.136 275.552 121.994 290.523 98.9782 295.124C77.3011 299.461 52.9116 293.361 38.4678 276.628C24.0241 259.884 22.4103 232.267 37.4378 216.049C45.5524 207.294 57.9016 201.651 61.7586 190.355C66.5541 176.335 55.8301 162.372 47.8185 149.908C41.1689 139.573 35.927 127.888 35.6294 115.607C35.3319 103.315 40.7568 90.3933 51.355 84.1786C77.221 69.0138 112.083 98.176 136.472 77.0254C155.311 60.6818 154.67 30.9932 186.076 28.5782Z" stroke="#FF5722" stroke-width="0.755378" stroke-linecap="round" stroke-linejoin="round"/>
<path d="M184.803 37.9174C204.569 36.3952 224.106 52.1551 226.818 71.7835C228.215 81.9468 225.628 92.4076 227.551 102.491C230.252 116.648 241.331 127.659 252.902 136.231C264.473 144.803 277.326 152.117 286.436 163.276C295.546 174.435 300.056 191.076 292.422 203.299C285.04 215.134 268.913 219.242 261.669 231.157C249.892 250.533 268.135 277.349 258.144 297.699C253.096 307.976 241.399 313.997 229.943 314.111C218.498 314.225 207.453 309.121 198.583 301.888C188.122 293.35 179.722 281.561 167.052 276.88C146.439 269.246 124.762 283.266 103.211 287.581C82.9074 291.644 60.063 285.933 46.5348 270.253C33.0067 254.574 31.496 228.708 45.562 213.508C53.1616 205.302 64.7326 200.026 68.3492 189.439C72.8357 176.312 62.7984 163.23 55.2904 151.556C49.0642 141.873 44.1543 130.932 43.8796 119.43C43.5934 107.927 48.6865 95.8183 58.6094 89.9927C82.8388 75.7893 115.492 103.109 138.325 83.2973C155.962 67.9952 155.366 40.1835 184.78 37.9174H184.803Z" stroke="#FF5722" stroke-width="0.709597" stroke-linecap="round" stroke-linejoin="round"/>
<path d="M183.534 47.2682C201.961 45.849 220.181 60.5331 222.711 78.8453C224.016 88.3219 221.601 98.0731 223.386 107.47C225.904 120.666 236.228 130.932 247.032 138.932C257.824 146.921 269.808 153.742 278.3 164.157C286.792 174.561 290.992 190.08 283.885 201.48C277.007 212.513 261.968 216.347 255.215 227.449C244.239 245.509 261.235 270.517 251.93 289.493C247.226 299.072 236.319 304.692 225.641 304.795C214.963 304.898 204.673 300.137 196.399 293.396C186.636 285.441 178.819 274.454 167.007 270.082C147.791 262.963 127.579 276.045 107.481 280.062C88.5512 283.85 67.2518 278.528 54.6393 263.901C42.0268 249.286 40.619 225.16 53.7351 211.002C60.8197 203.357 71.601 198.424 74.9773 188.57C79.1662 176.323 69.8041 164.134 62.7997 153.25C56.997 144.22 52.4189 134.022 52.1557 123.298C51.8925 112.574 56.6307 101.278 65.8898 95.8528C88.4711 82.6108 118.927 108.076 140.214 89.6037C156.661 75.3317 156.1 49.4085 183.534 47.2911V47.2682Z" stroke="#FF5722" stroke-width="0.675262" stroke-linecap="round" stroke-linejoin="round"/>
<path d="M182.251 56.6075C199.339 55.2913 216.243 68.911 218.578 85.8956C219.791 94.6855 217.548 103.727 219.208 112.448C221.543 124.683 231.122 134.205 241.137 141.622C251.151 149.038 262.253 155.356 270.139 165.016C278.024 174.664 281.916 189.05 275.323 199.626C268.937 209.858 254.997 213.417 248.736 223.718C238.55 240.462 254.321 263.661 245.692 281.252C241.331 290.134 231.214 295.353 221.314 295.444C211.414 295.536 201.868 291.129 194.2 284.869C185.147 277.487 177.891 267.301 166.938 263.249C149.106 256.657 130.371 268.777 111.738 272.497C94.1812 276.01 74.427 271.066 62.7301 257.515C51.0332 243.953 49.7284 221.589 61.8946 208.45C68.4641 201.354 78.4671 196.787 81.5916 187.643C85.4715 176.289 76.7847 164.981 70.2953 154.887C64.9161 146.52 60.6699 137.055 60.4296 127.109C60.1892 117.164 64.5842 106.691 73.168 101.656C94.1126 89.3749 122.348 112.998 142.102 95.8643C157.358 82.6337 156.832 58.5875 182.274 56.6304L182.251 56.6075Z" stroke="#FF5722" stroke-width="0.640927" stroke-linecap="round" stroke-linejoin="round"/>
<path d="M180.981 65.9468C196.729 64.7337 212.306 77.2889 214.469 92.9344C215.591 101.038 213.519 109.37 215.053 117.404C217.205 128.689 226.029 137.456 235.265 144.3C244.49 151.133 254.733 156.97 261.989 165.863C269.257 174.756 272.839 188.02 266.762 197.76C260.879 207.191 248.026 210.464 242.247 219.964C232.862 235.403 247.397 256.783 239.431 273C235.414 281.195 226.086 285.991 216.964 286.082C207.843 286.174 199.041 282.099 191.968 276.331C183.625 269.533 176.941 260.136 166.846 256.394C150.411 250.316 133.14 261.487 115.961 264.92C99.7778 268.159 81.5686 263.604 70.7873 251.106C60.006 238.608 58.8043 217.995 70.009 205.886C76.0635 199.351 85.2883 195.139 88.1725 186.704C91.7548 176.232 83.7432 165.817 77.7574 156.512C72.7902 148.798 68.8874 140.077 68.6585 130.898C68.4296 121.73 72.4812 112.071 80.4012 107.435C99.7091 96.1162 125.735 117.885 143.945 102.102C158.011 89.9015 157.53 67.7437 180.969 65.9354L180.981 65.9468Z" stroke="#FF5722" stroke-width="0.606591" stroke-linecap="round" stroke-linejoin="round"/>
<path d="M179.711 75.286C194.121 74.1758 208.381 85.6667 210.35 99.9846C211.368 107.401 209.48 115.023 210.876 122.383C212.845 132.706 220.925 140.741 229.372 146.99C237.818 153.239 247.18 158.584 253.83 166.721C260.479 174.859 263.764 187.002 258.202 195.918C252.823 204.547 241.057 207.546 235.769 216.233C227.174 230.356 240.485 249.927 233.194 264.771C229.52 272.268 220.982 276.663 212.627 276.743C204.272 276.823 196.227 273.103 189.76 267.827C182.126 261.601 176.003 253.006 166.767 249.584C151.728 244.021 135.922 254.242 120.208 257.389C105.398 260.354 88.734 256.188 78.8683 244.754C69.0026 233.32 67.9039 214.447 78.1587 203.368C83.6982 197.383 92.1332 193.537 94.777 185.812C98.0503 176.232 90.7255 166.698 85.2547 158.183C80.711 151.121 77.1287 143.144 76.9341 134.743C76.7281 126.354 80.4363 117.518 87.6811 113.272C105.352 102.915 129.17 122.84 145.822 108.385C158.687 97.2263 158.252 76.9455 179.711 75.286Z" stroke="#FF5722" stroke-width="0.572256" stroke-linecap="round" stroke-linejoin="round"/>
<path d="M178.44 84.6253C191.511 83.6181 204.444 94.0446 206.24 107.035C207.167 113.753 205.451 120.677 206.721 127.35C208.507 136.712 215.831 144.003 223.5 149.679C231.168 155.356 239.66 160.197 245.692 167.58C251.723 174.962 254.699 185.972 249.652 194.064C244.765 201.892 234.098 204.616 229.302 212.502C221.508 225.32 233.583 243.072 226.968 256.531C223.626 263.329 215.889 267.312 208.312 267.392C200.735 267.461 193.433 264.085 187.562 259.301C180.638 253.647 175.087 245.853 166.698 242.751C153.055 237.704 138.714 246.986 124.454 249.836C111.017 252.525 95.898 248.748 86.948 238.368C77.9979 227.987 76.9907 210.876 86.307 200.828C91.3314 195.403 98.9882 191.9 101.38 184.907C104.356 176.221 97.7064 167.568 92.7392 159.843C88.6189 153.433 85.3685 146.2 85.1854 138.578C85.0023 130.967 88.3671 122.955 94.9366 119.098C110.96 109.702 132.568 127.773 147.687 114.669C159.361 104.54 158.961 86.1475 178.429 84.6482L178.44 84.6253Z" stroke="#FF5722" stroke-width="0.537921" stroke-linecap="round" stroke-linejoin="round"/>
<path d="M177.171 93.9646C188.914 93.0604 200.519 102.423 202.133 114.085C202.969 120.117 201.424 126.331 202.568 132.317C204.17 140.729 210.751 147.265 217.63 152.358C224.508 157.451 232.142 161.8 237.556 168.427C242.969 175.053 245.648 184.942 241.115 192.198C236.732 199.225 227.152 201.675 222.849 208.748C215.856 220.25 226.683 236.193 220.754 248.279C217.756 254.379 210.809 257.962 204.01 258.03C197.212 258.099 190.654 255.066 185.378 250.763C179.163 245.693 174.173 238.688 166.653 235.907C154.407 231.375 141.531 239.707 128.736 242.259C116.673 244.674 103.099 241.275 95.0641 231.97C87.0296 222.654 86.1255 207.283 94.4919 198.264C99.0012 193.388 105.88 190.252 108.031 183.969C110.698 176.163 104.735 168.404 100.272 161.468C96.5749 155.711 93.6564 149.222 93.4847 142.377C93.313 135.545 96.3345 128.346 102.24 124.889C116.627 116.454 136.026 132.683 149.6 120.906C160.084 111.819 159.718 95.3037 177.194 93.9531L177.171 93.9646Z" stroke="#FF5722" stroke-width="0.503585" stroke-linecap="round" stroke-linejoin="round"/>
<path d="M175.901 103.315C186.305 102.514 196.594 110.811 198.013 121.135C198.746 126.48 197.384 131.996 198.402 137.295C199.821 144.746 205.658 150.537 211.747 155.058C217.836 159.579 224.6 163.425 229.396 169.296C234.191 175.167 236.56 183.934 232.543 190.366C228.663 196.593 220.171 198.756 216.36 205.028C210.156 215.225 219.759 229.337 214.506 240.05C211.85 245.463 205.693 248.634 199.661 248.691C193.63 248.748 187.827 246.058 183.157 242.259C177.652 237.761 173.234 231.557 166.562 229.097C155.712 225.079 144.301 232.462 132.959 234.728C122.269 236.868 110.252 233.858 103.133 225.606C96.0142 217.354 95.2131 203.734 102.618 195.746C106.612 191.431 112.701 188.65 114.613 183.076C116.982 176.163 111.694 169.285 107.734 163.139C104.461 158.045 101.874 152.289 101.725 146.223C101.577 140.168 104.255 133.793 109.485 130.726C122.235 123.252 139.426 137.627 151.443 127.201C160.725 119.143 160.416 104.505 175.901 103.315Z" stroke="#FF5722" stroke-width="0.46925" stroke-linecap="round" stroke-linejoin="round"/>
<path d="M174.63 112.654C183.694 111.956 192.656 119.178 193.903 128.185C194.544 132.843 193.354 137.65 194.235 142.263C195.471 148.752 200.553 153.811 205.863 157.737C211.174 161.662 217.068 165.027 221.246 170.143C225.423 175.259 227.495 182.893 223.992 188.501C220.605 193.926 213.211 195.814 209.881 201.285C204.478 210.167 212.845 222.47 208.267 231.809C205.955 236.525 200.587 239.283 195.334 239.34C190.08 239.386 185.022 237.051 180.947 233.732C176.152 229.818 172.295 224.416 166.492 222.264C157.038 218.762 147.093 225.194 137.204 227.174C127.888 229.04 117.415 226.419 111.212 219.231C105.009 212.044 104.311 200.175 110.766 193.205C114.245 189.44 119.556 187.025 121.215 182.172C123.275 176.152 118.663 170.143 115.229 164.798C112.368 160.358 110.125 155.333 109.988 150.057C109.862 144.781 112.185 139.23 116.74 136.552C127.853 130.039 142.835 142.572 153.307 133.484C161.399 126.468 161.124 113.707 174.618 112.666L174.63 112.654Z" stroke="#FF5722" stroke-width="0.434915" stroke-linecap="round" stroke-linejoin="round"/>
</g>
<defs>
<clipPath id="clip0_719_431">
<rect width="332" height="351.949" fill="white"/>
</clipPath>
</defs>
</svg>
